<?xml version="1.0" encoding="utf-8"?>
<svg xmlns="http://www.w3.org/2000/svg">
<symbol id="mark-github" viewBox="0 0 16 16">
    <!-- Generator: Sketch 40.3 (33839) - http://www.bohemiancoding.com/sketch -->
    <title>mark-github</title>
    <desc>Created with Sketch.</desc>
    <defs/>
    <g id="Octicons" stroke="none" stroke-width="1" fill="none" fill-rule="evenodd">
        <g id="mark-github" fill="#000000">
            <path d="M8,0 C3.58,0 0,3.58 0,8 C0,11.54 2.29,14.53 5.47,15.59 C5.87,15.66 6.02,15.42 6.02,15.21 C6.02,15.02 6.01,14.39 6.01,13.72 C4,14.09 3.48,13.23 3.32,12.78 C3.23,12.55 2.84,11.84 2.5,11.65 C2.22,11.5 1.82,11.13 2.49,11.12 C3.12,11.11 3.57,11.7 3.72,11.94 C4.44,13.15 5.59,12.81 6.05,12.6 C6.12,12.08 6.33,11.73 6.56,11.53 C4.78,11.33 2.92,10.64 2.92,7.58 C2.92,6.71 3.23,5.99 3.74,5.43 C3.66,5.23 3.38,4.41 3.82,3.31 C3.82,3.31 4.49,3.1 6.02,4.13 C6.66,3.95 7.34,3.86 8.02,3.86 C8.7,3.86 9.38,3.95 10.02,4.13 C11.55,3.09 12.22,3.31 12.22,3.31 C12.66,4.41 12.38,5.23 12.3,5.43 C12.81,5.99 13.12,6.7 13.12,7.58 C13.12,10.65 11.25,11.33 9.47,11.53 C9.76,11.78 10.01,12.26 10.01,13.01 C10.01,14.08 10,14.94 10,15.21 C10,15.42 10.15,15.67 10.55,15.59 C13.71,14.53 16,11.53 16,8 C16,3.58 12.42,0 8,0 L8,0 Z" id="Shape"/>
        </g>
    </g>

</symbol>
<symbol id="issues" viewBox="0 0 14 16">
    <!-- Generator: Sketch 40.3 (33839) - http://www.bohemiancoding.com/sketch -->
    <title>issue-opened</title>
    <desc>Created with Sketch.</desc>
    <defs/>
    <g id="Octicons" stroke="none" stroke-width="1" fill="none" fill-rule="evenodd">
        <g id="issue-opened" fill="#000000">
            <path d="M7,2.3 C10.14,2.3 12.7,4.86 12.7,8 C12.7,11.14 10.14,13.7 7,13.7 C3.86,13.7 1.3,11.14 1.3,8 C1.3,4.86 3.86,2.3 7,2.3 L7,2.3 Z M7,1 C3.14,1 0,4.14 0,8 C0,11.86 3.14,15 7,15 C10.86,15 14,11.86 14,8 C14,4.14 10.86,1 7,1 L7,1 Z M8,4 L6,4 L6,9 L8,9 L8,4 L8,4 Z M8,10 L6,10 L6,12 L8,12 L8,10 L8,10 Z" id="Shape"/>
        </g>
    </g>

</symbol>
<symbol id="repo" viewBox="0 0 12 16">
    <!-- Generator: Sketch 40.3 (33839) - http://www.bohemiancoding.com/sketch -->
    <title>repo</title>
    <desc>Created with Sketch.</desc>
    <defs/>
    <g id="Octicons" stroke="none" stroke-width="1" fill="none" fill-rule="evenodd">
        <g id="repo" fill="#000000">
            <path d="M4,9 L3,9 L3,8 L4,8 L4,9 L4,9 Z M4,6 L3,6 L3,7 L4,7 L4,6 L4,6 Z M4,4 L3,4 L3,5 L4,5 L4,4 L4,4 Z M4,2 L3,2 L3,3 L4,3 L4,2 L4,2 Z M12,1 L12,13 C12,13.55 11.55,14 11,14 L6,14 L6,16 L4.5,14.5 L3,16 L3,14 L1,14 C0.45,14 0,13.55 0,13 L0,1 C0,0.45 0.45,0 1,0 L11,0 C11.55,0 12,0.45 12,1 L12,1 Z M11,11 L1,11 L1,13 L3,13 L3,12 L6,12 L6,13 L11,13 L11,11 L11,11 Z M11,1 L2,1 L2,10 L11,10 L11,1 L11,1 Z" id="Shape"/>
        </g>
    </g>

</symbol>
<symbol id="twitter" viewBox="0 0 341.7375 277.725">
    <path fill="#6babe1" d="M107.475 277.72C67.88 277.72 31.03 266.113 0 246.22c5.485.65 11.066.98 16.725.98 32.847 0 63.08-11.21 87.074-30.013-30.68-.566-56.574-20.836-65.495-48.69a70.083 70.083 0 0 0 13.19 1.256c6.395 0 12.59-.856 18.473-2.458-32.074-6.44-56.242-34.778-56.242-68.748 0-.296 0-.588.006-.88a69.83 69.83 0 0 0 31.756 8.768c-18.812-12.573-31.19-34.033-31.19-58.356 0-12.85 3.457-24.894 9.492-35.25 34.58 42.42 86.24 70.33 144.512 73.255a70.387 70.387 0 0 1-1.816-15.978c0-38.718 31.393-70.11 70.114-70.11 20.165 0 38.386 8.515 51.176 22.142a140.382 140.382 0 0 0 44.52-17.016c-5.233 16.372-16.35 30.112-30.826 38.79 14.182-1.695 27.695-5.464 40.27-11.04-9.4 14.06-21.29 26.408-34.986 36.293.135 3.007.202 6.03.202 9.07 0 92.65-70.52 199.488-199.475 199.488"/>

</symbol>
<symbol id="linkedin" viewBox="0 0 64 64">
    <path d="M12.8 51.2V24.384h8.192V51.2H12.8m8.448-34.24c.064 2.304-1.664 4.16-4.416 4.16-2.56 0-4.224-1.856-4.224-4.16 0-2.368 1.728-4.16 4.352-4.16s4.288 1.792 4.288 4.16M42.752 51.2V36.352c0-3.456-1.152-5.824-4.16-5.824-2.24 0-3.584 1.6-4.224 3.136-.192.576-.256 1.344-.256 2.112V51.2H25.92V32.96c0-3.328-.128-6.144-.192-8.576h7.104l.384 3.776h.128c1.088-1.792 3.776-4.352 8.192-4.352 5.376 0 9.472 3.648 9.472 11.584V51.2h-8.256M64 5.632C64 2.56 61.44 0 58.368 0H5.632C2.56 0 0 2.56 0 5.632v52.736C0 61.44 2.56 64 5.632 64h52.736C61.44 64 64 61.44 64 58.368V5.632" fill="#1d87bd"/>

</symbol>
<symbol id="reddit" viewBox="0 0 256 256">
    <g stroke="#000">
        <rect transform="scale(-1 1)" x="-245.5" y="10.505" width="235.01" height="234.99" rx="35.488" ry="35.488" fill="#6bc1ff" fill-rule="evenodd" stroke-dasharray="0.5, 1" stroke-linecap="square" stroke-width=".5"/>
        <path d="M68.362 125.52c0 11.964-9.274 21.662-20.715 21.662-11.44 0-20.714-9.699-20.714-21.662 0-11.964 9.274-21.662 20.714-21.662 11.441 0 20.715 9.699 20.715 21.662zM224.08 126c0 11.964-9.274 21.662-20.715 21.662-11.44 0-20.714-9.699-20.714-21.662 0-11.964 9.274-21.662 20.714-21.662 11.441 0 20.715 9.699 20.715 21.662z" fill="#fff" stroke-width="8"/>
        <path d="M181.93 67.429c-15.654-6.425-31.604-14.038-43.571-5.715-13.857 6.381-13.196 27.28-12.143 48.572" fill="none" stroke-width="10"/>
        <path d="M211.46 157.07c0 33.334-38.27 60.358-85.479 60.358-47.208 0-85.479-27.023-85.479-60.358 0-33.333 38.271-60.357 85.479-60.357 47.209 0 85.479 27.022 85.479 60.357zM209.79 70.643c0 10.848-8.154 19.643-18.214 19.643s-18.214-8.795-18.214-19.643c0-10.849 8.155-19.643 18.214-19.643 10.06 0 18.214 8.794 18.214 19.643z" fill="#fff" stroke-linecap="round" stroke-width="8"/>
    </g>
    <path d="M102.77 144.93c0 6.903-5.464 12.5-12.203 12.5s-12.202-5.597-12.202-12.5c0-6.904 5.463-12.5 12.202-12.5 6.74 0 12.203 5.596 12.203 12.5zm63.511-1.072c0 6.904-5.463 12.5-12.202 12.5-6.74 0-12.202-5.596-12.202-12.5 0-6.903 5.463-12.5 12.202-12.5 6.74 0 12.202 5.597 12.202 12.5z" fill="red"/>
    <path d="M89.79 178.14c27.11 19.15 47.543 11.599 67.143.714" fill="none" stroke="#000" stroke-linecap="round" stroke-width="10"/>

</symbol>
<symbol id="google+" viewBox="0 0 134.658 131.646">
    <path fill="#DC4A38" d="M126.52 4.11H8.14A3.938 3.938 0 0 0 4.2 8.046v115.55a3.94 3.94 0 0 0 3.94 3.942h118.37a3.94 3.94 0 0 0 3.94-3.943V8.057c0-2.176-1.77-3.94-3.94-3.94z"/>
    <path fill="#FFF" d="M70.48 71.845l-3.984-3.093c-1.213-1.006-2.872-2.334-2.872-4.765 0-2.44 1.66-3.993 3.1-5.43 4.64-3.652 9.275-7.54 9.275-15.73 0-8.423-5.3-12.854-7.84-14.956h6.848l7.19-4.516h-21.78c-5.976 0-14.588 1.414-20.893 6.62-4.752 4.1-7.07 9.752-7.07 14.84 0 8.64 6.633 17.397 18.346 17.397 1.107 0 2.317-.108 3.535-.22-.547 1.33-1.1 2.438-1.1 4.32 0 3.43 1.763 5.534 3.317 7.527-4.977.342-14.268.893-21.117 5.103-6.523 3.88-8.508 9.525-8.508 13.51 0 8.202 7.73 15.842 23.762 15.842 19.01 0 29.073-10.52 29.073-20.932 0-7.65-4.42-11.415-9.284-15.513zM56 59.107c-9.51 0-13.818-12.294-13.818-19.712 0-2.888.547-5.87 2.428-8.2 1.773-2.217 4.86-3.656 7.744-3.656 9.168 0 13.923 12.403 13.923 20.38 0 1.997-.22 5.534-2.762 8.09-1.778 1.775-4.753 3.097-7.515 3.097zm.11 44.543c-11.827 0-19.453-5.657-19.453-13.523 0-7.864 7.07-10.524 9.504-11.405 4.64-1.56 10.612-1.78 11.608-1.78 1.105 0 1.658 0 2.538.112 8.407 5.983 12.056 8.965 12.056 14.63 0 6.858-5.64 11.966-16.253 11.966zm42.283-44.712V47.863h-5.47v11.075H81.866v5.53h11.057v11.144h5.47V64.47h11.117v-5.532z"/>

</symbol>
<symbol id="free-code-camp" viewBox="0 0 100.00001 67.371197">
    <path d="M0 32.41C0 21.974 3.567 12.727 10.832 4.537c2.642-3.038 4.756-4.49 6.21-4.49.527 0 1.055.13 1.452.527s.66.793.66 1.32c0 .794-.924 1.982-2.774 3.832C8.85 12.99 5.02 21.974 5.02 32.674c0 11.89 3.962 21.532 11.756 28.93 1.585 1.453 2.378 2.642 2.378 3.567 0 .53-.264 1.057-.66 1.454s-.925.66-1.454.66c-1.85 0-4.36-2.113-7.66-6.34-6.342-7.8-9.38-17.3-9.38-28.5zm100 2.6c0 10.436-3.567 19.683-10.832 27.873-2.642 3.038-4.756 4.49-6.21 4.49-.527 0-1.055-.13-1.452-.527s-.66-.925-.66-1.453c0-.793.924-1.982 2.774-3.7 7.53-7.264 11.36-16.247 11.36-26.947 0-11.89-3.962-21.532-11.756-28.93-1.585-1.453-2.378-2.642-2.378-3.567 0-.53.264-1.057.66-1.454s.925-.66 1.454-.66c1.717 0 4.36 2.113 7.66 6.34C96.83 14.402 100 23.913 100 35.01zm-30.063 27.9h-34.7c-1.1 0-2.1-.9-2.1-2.1s.9-2.1 2.1-2.1h34.7c1.1 0 2.1.9 2.1 2.1s-.9 2.1-2.1 2.1zm-4.882-41.7c-.74-2.488-1.902-4.823-3.702-6.684-.476-.493-.987-.953-1.495-1.412-.4-.36-1.387-.944-1.593-1.428 1.05 2.468 2.1 5.03 1.308 7.735-.358 1.226-1.712 4.158-3.476 3.41-1.67-.707-1.474-4.204-1.618-5.617-.354-3.467-1.12-6.927-2.968-9.927-1.008-1.635-2.327-3.09-3.987-4.074-2.182-1.295-4.444-2.165-6.925-1.227.546-.207 1.985 1.448 2.254 1.766.87 1.032 1.594 2.252 1.982 3.55.788 2.634.1 5.635-.82 8.146-1.905 5.198-5.084 9.873-6.61 15.218-.532 1.863-.897 3.778-.997 5.715-.314 6.1 2.854 11.69 7.872 15.104 1.138.774 3.163 1.744 4.605 1.245-4.212-2.254-5.612-4.104-6.263-6.755-1.508-6.147 4.244-10.05 6.73-14.91.664-1.295 1.144-2.717.977-4.185-.062-.547-.685-3.238-1.51-3.105 2.503-.402 4.134 1.265 4.99 3.44.904 2.29 1.44 4.645 1.04 7.08-.132.817-.745 3.363.435 3.528 1.625.228 3.02-1.927 2.686-4.007a49.71 49.71 0 0 1-.34-2.448c1.725 2.127 2.507 4.255 2.76 6.59.454 4.176-1.326 9.667-4.673 13.076 1.407-1.434 3.198-2.425 4.557-3.955 1.388-1.564 2.447-3.37 3.275-5.285 1.852-4.28 2.935-9.12 2.633-13.797-.143-2.23-.468-4.57-1.128-6.788z"/>

</symbol>
<symbol id="twitch" viewBox="0 0 128 134">
<path d="m9 0-9 23v94h32v17h18l17-17h26l35-35v-82zm107 76-20 20h-32l-17 17v-17h-27v-84h96zm-20-41v35h-12v-35zm-32 0v35h-12v-35z" clip-rule="evenodd" rill-rule="evenodd"/>

</symbol>
<symbol id="avatar" viewBox="0 0 16 16">
    <title>
        Gnome Symbolic Icon Theme
    </title>
    <g>
        <path d="M10.555 8.094C9.849 8.717 9.015 9 8 9c-1.016 0-1.853-.29-2.559-.914-1.109.363-2.436 1.288-2.437 2.902L3 14c0 .554.446 1 1 1h8c.554 0 1-.446 1-1v-3c0-1.387-1.102-2.556-2.445-2.906z"/>
        <path d="M11 5a3 3 0 1 1-6 0 3 3 0 1 1 6 0z" overflow="visible"/>
    </g>

</symbol>
<symbol id="offline" viewBox="0 0 16 16">
    <title>
        Gnome Symbolic Icon Theme
    </title>
    <g>
        <path d="M11 11h1.375l1.125 1.094L14.594 11H16v1.469l-1.094 1.062L16 14.594V16h-1.438L13.5 14.937 12.437 16H11v-1.406l1.062-1.063L11 12.47V11z" overflow="visible"/>
        <path d="M10 13a2 2 0 1 1-4 0 2 2 0 1 1 4 0z" opacity=".35"/>
        <path d="M8 2C5.186 2 2.828 3 1 4.586V6h1.48C4 4.736 5.7 4 8 4c2.3 0 4 .78 5.52 2H15V4.62C13.36 3.153 10.814 2 8 2z" opacity=".35" overflow="visible"/>
        <path d="M8 5c-2.167 0-4.02.739-5 2v1h2c.789-.606 1.759-1 3-1s2.22.394 3 1h2V7c-.995-1.223-2.873-2-5-2z" opacity=".35" overflow="visible"/>
        <path d="M8 8c-1.257 0-2.216.312-3 1v1h6V9c-.837-.672-1.743-1-3-1z" opacity=".35" overflow="visible"/>
    </g>

</symbol>
<symbol id="online" viewBox="0 0 16 16">
    <title>
        Gnome Symbolic Icon Theme
    </title>
    <g>
        <path d="M10 13a2 2 0 1 1-4 0 2 2 0 1 1 4 0z"/>
        <path d="M8 2C5.186 2 2.828 3 1 4.586V6h1.48C4 4.736 5.7 4 8 4c2.3 0 4 .78 5.52 2H15V4.62C13.36 3.153 10.814 2 8 2z" opacity=".35" overflow="visible"/>
        <path d="M8 5c-2.167 0-4.02.739-5 2v1h2c.789-.606 1.759-1 3-1s2.22.394 3 1h2V7c-.995-1.223-2.873-2-5-2z" overflow="visible"/>
        <path d="M8 8c-1.257 0-2.216.312-3 1v1h6V9c-.837-.672-1.743-1-3-1z" overflow="visible"/>
    </g>

</symbol>
<symbol id="clear" viewBox="0 0 16 16">
    <title>
        Gnome Symbolic Icon Theme
    </title>
    <path d="M6 2L0 8l6 6h9.035A1.03 1.03 0 0 0 16 13V3c0-.53-.346-1-1.009-1zm1 3h1.031c.255.011.51.129.688.313L10 6.593l1.313-1.28c.265-.231.446-.306.687-.313h1v1c0 .286-.034.55-.25.75l-1.281 1.281 1.25 1.25c.188.188.281.454.281.719v1h-1c-.265 0-.53-.093-.719-.281l-1.28-1.281-1.282 1.28A1.015 1.015 0 0 1 8 11H7v-1c0-.265.093-.53.281-.719l1.282-1.25L7.28 6.75A.909.909 0 0 1 7 6z"/>

</symbol>
<symbol id="select-all" viewBox="0 0 16 15.973852">
<title>Gnome Symbolic Icon Theme</title>
<g transform="translate(-281 -767)">
<rect x="282" y="768" width="1" height="1" image-rendering="auto" solid-color="#000000"/>
<rect x="284" y="768" width="1" height="1" image-rendering="auto" solid-color="#000000"/>
<rect x="286" y="768" width="1" height="1" image-rendering="auto" solid-color="#000000"/>
<rect x="288" y="768" width="1" height="1" image-rendering="auto" solid-color="#000000"/>
<rect x="290" y="768" width="1" height="1" image-rendering="auto" solid-color="#000000"/>
<rect x="292" y="768" width="1" height="1" image-rendering="auto" solid-color="#000000"/>
<rect x="294" y="768" width="1" height="1" image-rendering="auto" solid-color="#000000"/>
<rect x="294" y="770" width="1" height="1" image-rendering="auto" solid-color="#000000"/>
<rect x="294" y="772" width="1" height="1" image-rendering="auto" solid-color="#000000"/>
<rect x="294" y="774" width="1" height="1" image-rendering="auto" solid-color="#000000"/>
<rect x="294" y="776" width="1" height="1" image-rendering="auto" solid-color="#000000"/>
<rect x="294" y="778" width="1" height="1" image-rendering="auto" solid-color="#000000"/>
<rect x="294" y="780" width="1" height="1" image-rendering="auto" solid-color="#000000"/>
<rect x="292" y="780" width="1" height="1" image-rendering="auto" solid-color="#000000"/>
<rect x="290" y="780" width="1" height="1" image-rendering="auto" solid-color="#000000"/>
<rect x="288" y="780" width="1" height="1" image-rendering="auto" solid-color="#000000"/>
<rect x="286" y="780" width="1" height="1" image-rendering="auto" solid-color="#000000"/>
<rect x="284" y="780" width="1" height="1" image-rendering="auto" solid-color="#000000"/>
<rect x="282" y="780" width="1" height="1" image-rendering="auto" solid-color="#000000"/>
<rect x="282" y="778" width="1" height="1" image-rendering="auto" solid-color="#000000"/>
<rect x="282" y="776" width="1" height="1" image-rendering="auto" solid-color="#000000"/>
<rect x="282" y="774" width="1" height="1" image-rendering="auto" solid-color="#000000"/>
<rect x="282" y="772" width="1" height="1" image-rendering="auto" solid-color="#000000"/>
<rect x="282" y="770" width="1" height="1" image-rendering="auto" solid-color="#000000"/>
<rect x="284" y="775.1" width="4" height="4" image-rendering="auto" solid-color="#000000"/>
<rect x="289" y="775.1" width="4" height="4" image-rendering="auto" solid-color="#000000"/>
<rect x="284" y="770" width="9" height="4" image-rendering="auto" solid-color="#000000"/>
</g>

</symbol></svg>